HIERARCHY
ROOT Hips
{
 OFFSET 0.000000 0.000000 0.000000
 CHANNELS 6 Xposition Yposition Zposition Yrotation Xrotation Zrotation
 JOINT Chest
 {
  OFFSET 0.000000 9.585900 0.002600
  CHANNELS 3 Yrotation Xrotation Zrotation
  JOINT Chest2
  {
   OFFSET 0.000000 9.601200 -0.005300
   CHANNELS 3 Yrotation Xrotation Zrotation
   JOINT Chest3
   {
    OFFSET 0.000000 9.561800 0.000000
    CHANNELS 3 Yrotation Xrotation Zrotation
    JOINT Chest4
    {
     OFFSET 0.000000 9.552100 0.000000
     CHANNELS 3 Yrotation Xrotation Zrotation
     JOINT Neck
     {
      OFFSET 0.000000 14.453000 0.000000
      CHANNELS 3 Yrotation Xrotation Zrotation
      JOINT Head
      {
       OFFSET 0.000000 8.936500 -0.011300
       CHANNELS 3 Yrotation Xrotation Zrotation
       End Site
       {
        OFFSET 0.000000 17.073600 -0.006000
       }
      }
     }
     JOINT RightCollar
     {
      OFFSET -2.921100 9.558500 0.000000
      CHANNELS 3 Yrotation Xrotation Zrotation
      JOINT RightShoulder
      {
       OFFSET -13.519700 0.000000 0.000000
       CHANNELS 3 Yrotation Xrotation Zrotation
       JOINT RightElbow
       {
        OFFSET 0.000000 -29.696600 0.000000
        CHANNELS 3 Yrotation Xrotation Zrotation
        JOINT RightWrist
        {
         OFFSET 0.000000 -24.004700 0.000000
         CHANNELS 3 Yrotation Xrotation Zrotation
         End Site
         {
          OFFSET 0.000000 -17.728500 0.000000
         }
        }
       }
      }
     }
     JOINT LeftCollar
     {
      OFFSET 2.921100 9.558500 0.000000
      CHANNELS 3 Yrotation Xrotation Zrotation
      JOINT LeftShoulder
      {
       OFFSET 13.519700 0.000000 0.000000
       CHANNELS 3 Yrotation Xrotation Zrotation
       JOINT LeftElbow
       {
        OFFSET 0.000000 -29.696600 0.000000
        CHANNELS 3 Yrotation Xrotation Zrotation
        JOINT LeftWrist
        {
         OFFSET 0.000000 -24.004700 0.000000
         CHANNELS 3 Yrotation Xrotation Zrotation
         End Site
         {
          OFFSET 0.000000 -17.728500 0.000000
         }
        }
       }
      }
     }
    }
   }
  }
 }
 JOINT RightHip
 {
  OFFSET -7.771700 -0.012900 -0.001300
  CHANNELS 3 Yrotation Xrotation Zrotation
  JOINT RightKnee
  {
   OFFSET 0.000000 -40.869800 0.001200
   CHANNELS 3 Yrotation Xrotation Zrotation
   JOINT RightAnkle
   {
    OFFSET 0.000000 -39.717900 0.002100
    CHANNELS 3 Yrotation Xrotation Zrotation
    JOINT RightToe
    {
     OFFSET 0.000000 -4.965400 11.033500
     CHANNELS 3 Yrotation Xrotation Zrotation
     End Site
     {
      OFFSET 0.000000 -1.423100 5.872300
     }
    }
   }
  }
 }
 JOINT LeftHip
 {
  OFFSET 7.771700 -0.012900 -0.001300
  CHANNELS 3 Yrotation Xrotation Zrotation
  JOINT LeftKnee
  {
   OFFSET 0.000000 -40.869800 0.001200
   CHANNELS 3 Yrotation Xrotation Zrotation
   JOINT LeftAnkle
   {
    OFFSET 0.000000 -39.717900 0.002100
    CHANNELS 3 Yrotation Xrotation Zrotation
    JOINT LeftToe
    {
     OFFSET 0.000000 -4.965400 11.033500
     CHANNELS 3 Yrotation Xrotation Zrotation
     End Site
     {
      OFFSET 0.000000 -1.423100 5.872300
     }
    }
   }
  }
 }
}
MOTION
Frames: 7
Frame Time: 0.008333
0.000000 85.388000 0.000000 0.000000 -5.767877 0.000000 0.000000 11.653817 0.000000 0.000000 -5.885947 0.000000 0.000000 -0.000000 0.000000 0.000000 -0.000000 0.000000 0.000000 12.528835 0.000000 0.000000 0.711642 0.000000 0.000000 -0.000000 0.000000 0.000000 0.000000 -90.000000 0.000000 -2.309062 0.000000 0.000000 2.309062 0.000000 0.000000 -0.000000 0.000000 0.000000 -0.000000 90.000000 0.000000 -2.309062 0.000000 0.000000 2.309062 0.000000 0.000000 8.520406 0.000000 0.000000 1.905762 0.000000 -0.000000 -4.658285 0.000000 0.000000 -0.000000 0.000000 0.000000 8.520406 0.000000 0.000000 1.905762 0.000000 -0.000000 -4.658285 0.000000 0.000000 -0.000000 0.000000
-24.532171 52.022729 28.534472 178.785175 -34.509914 0.585959 1.209618 24.853176 -0.267904 0.179449 3.883656 0.021661 0.288636 6.222409 0.040591 1.006154 20.596725 0.266188 -0.603407 15.151199 -3.641012 0.193465 -9.776932 -3.699462 9.129406 11.043763 12.994295 36.744363 -7.343170 -44.443982 157.150154 -42.844367 174.751557 -5.523215 -3.803945 13.140417 -10.570559 11.571336 -18.528471 -31.500656 -2.680338 40.928263 -175.178081 -47.397561 -153.063426 21.102152 -6.336829 -34.772251 -8.122730 -48.132669 0.006237 -56.586226 81.804651 -65.271254 -3.759644 -5.201002 7.385760 0.233554 -0.694005 0.107842 2.891105 -45.747535 -3.925122 37.163962 83.542358 42.863155 -1.362677 -12.171504 -2.027700 0.213527 0.570564 0.096223
-24.537618 52.023816 28.534983 178.784331 -34.557857 0.593650 1.249241 24.924410 -0.276936 0.187213 3.902126 0.019400 0.301024 6.250242 0.037323 1.044245 20.633506 0.259898 -0.483139 15.268932 -3.683907 0.330019 -9.650694 -3.774058 9.263901 10.991351 13.035915 37.467708 -7.072784 -44.653058 158.048260 -43.222152 174.261254 -5.429370 -3.909480 12.320793 -10.660742 11.506907 -18.485071 -32.210252 -2.724735 41.106522 -176.059197 -47.762958 -152.453556 21.190813 -6.303163 -34.793971 -8.103028 -48.083325 -0.021837 -56.531514 81.805564 -65.215803 -3.757920 -5.188328 7.380925 0.234804 -0.688783 0.111121 2.869823 -45.696945 -3.937603 37.196362 83.529926 42.897623 -1.358776 -12.157744 -2.037717 0.217986 0.563439 0.089598
-24.542674 52.023743 28.537944 178.781159 -34.602503 0.597609 1.290971 24.990811 -0.278631 0.195404 3.922694 0.017324 0.314023 6.281200 0.034346 1.084093 20.674337 0.254732 -0.320110 15.405982 -3.732783 0.513174 -9.503109 -3.865401 9.408878 10.936725 13.080775 38.226802 -6.810495 -44.875826 159.042274 -43.669903 173.689519 -5.356479 -4.051429 11.558589 -10.807917 11.500571 -18.511951 -32.933085 -2.824628 41.392020 -177.120236 -48.169095 -151.707035 21.319819 -6.279569 -34.843226 -8.090318 -48.040065 -0.040103 -56.486464 81.800871 -65.173243 -3.738691 -5.163489 7.374932 0.225615 -0.692321 0.114846 2.842002 -45.652230 -3.944935 37.251998 83.516862 42.955718 -1.344073 -12.143996 -2.052903 0.209812 0.559471 0.085938
-24.547996 52.022036 28.544154 178.764342 -34.638403 0.610623 1.322162 25.037239 -0.281688 0.199566 3.933539 0.016383 0.345939 6.334581 0.023004 1.122561 20.718144 0.251143 -0.113562 15.566505 -3.788249 0.744142 -9.329358 -3.974520 9.565123 10.885133 13.131995 39.023668 -6.563134 -45.121400 160.150285 -44.194876 173.011513 -5.322489 -4.213439 10.902425 -10.961071 11.506504 -18.547638 -33.689227 -2.956685 41.710492 -178.389085 -48.615766 -150.790747 21.500138 -6.272583 -34.909738 -8.070195 -48.008088 -0.059712 -56.367708 81.809655 -65.053380 -3.738282 -5.141335 7.367631 0.221978 -0.690771 0.114052 2.825576 -45.617112 -3.955371 37.267306 83.505294 42.971909 -1.315833 -12.126507 -2.069803 0.206951 0.553286 0.082091
-24.552478 52.020105 28.551688 178.766220 -34.680203 0.610696 1.338097 25.089083 -0.282977 0.203709 3.944789 0.015642 0.376250 6.386225 0.016908 1.156018 20.763375 0.248285 0.137598 15.756733 -3.850383 1.024401 -9.122063 -4.102051 9.734610 10.839335 13.193671 39.851109 -6.330425 -45.393199 161.394891 -44.800886 172.202112 -5.344115 -4.382029 10.385983 -11.111320 11.507038 -18.577743 -34.470255 -3.110703 42.037463 -179.897076 -49.086939 -149.671776 21.728450 -6.278912 -34.995392 -8.064245 -47.968097 -0.071894 -56.319621 81.809731 -65.005206 -3.741864 -5.134560 7.364734 0.224267 -0.686363 0.115238 2.787969 -45.579206 -3.960274 37.244228 83.498649 42.951362 -1.285337 -12.108852 -2.092255 0.198557 0.550638 0.081905
-24.555723 52.016722 28.562466 178.788166 -34.714147 0.596868 1.359431 25.138106 -0.273856 0.210817 3.967417 0.014151 0.370644 6.402039 0.020832 1.188988 20.824218 0.241568 0.435926 15.983738 -3.919242 1.357059 -8.872840 -4.249060 9.922632 10.801339 13.269406 40.701752 -6.111963 -45.696036 162.790209 -45.492763 171.232138 -5.434785 -4.541681 10.038650 -11.289607 11.514984 -18.639967 -35.241131 -3.284113 42.404847 178.336439 -49.553932 -148.321910 21.985723 -6.282422 -35.112400 -8.074713 -47.937429 -0.079497 -56.282428 81.809838 -64.965918 -3.741374 -5.123322 7.360110 0.226409 -0.674809 0.115484 2.737167 -45.550612 -3.965923 37.059547 83.494781 42.790620 -1.277464 -12.082851 -2.138086 0.224611 0.552245 0.096719
